<mxfile host="app.diagrams.net" agent="Mozilla/5.0 (Windows NT 10.0; Win64; x64; rv:130.0) Gecko/20100101 Firefox/130.0" version="24.7.16">
  <diagram name="Inventory Management Use Case" id="ZYnF9oKlCfJmkNRqoUya">
    <mxGraphModel dx="1434" dy="754" grid="1" gridSize="10" guides="1" tooltips="1" connect="1" arrows="1" fold="1" page="1" pageScale="1" pageWidth="850" pageHeight="1100" math="0" shadow="0">
      <root>
        <mxCell id="0" />
        <mxCell id="1" parent="0" />
        <mxCell id="6w_mq8DxbaA0OkGnwahE-4" value="Create/Edit/Delete Inventory Record" style="ellipse;whiteSpace=wrap;html=1;" parent="1" vertex="1">
          <mxGeometry x="450" y="420" width="140" height="80" as="geometry" />
        </mxCell>
        <mxCell id="6w_mq8DxbaA0OkGnwahE-6" value="View/Delete Users" style="ellipse;whiteSpace=wrap;html=1;" parent="1" vertex="1">
          <mxGeometry x="130" y="310" width="140" height="80" as="geometry" />
        </mxCell>
        <mxCell id="6w_mq8DxbaA0OkGnwahE-7" value="View/Filter Inventory" style="ellipse;whiteSpace=wrap;html=1;" parent="1" vertex="1">
          <mxGeometry x="220" y="530" width="140" height="80" as="geometry" />
        </mxCell>
        <mxCell id="6w_mq8DxbaA0OkGnwahE-15" style="edgeStyle=orthogonalEdgeStyle;rounded=0;orthogonalLoop=1;" parent="1" target="6w_mq8DxbaA0OkGnwahE-7" edge="1">
          <mxGeometry relative="1" as="geometry">
            <mxPoint x="80" y="460" as="sourcePoint" />
          </mxGeometry>
        </mxCell>
        <mxCell id="wZHMpMPSBQjcepl6iZ_0-11" style="edgeStyle=orthogonalEdgeStyle;rounded=0;orthogonalLoop=1;jettySize=auto;html=1;" edge="1" parent="1" source="p2QV3S1VOAh8yZYF3OcT-1" target="6w_mq8DxbaA0OkGnwahE-6">
          <mxGeometry relative="1" as="geometry" />
        </mxCell>
        <mxCell id="wZHMpMPSBQjcepl6iZ_0-12" style="edgeStyle=orthogonalEdgeStyle;rounded=0;orthogonalLoop=1;jettySize=auto;html=1;" edge="1" parent="1" source="p2QV3S1VOAh8yZYF3OcT-1" target="wZHMpMPSBQjcepl6iZ_0-3">
          <mxGeometry relative="1" as="geometry" />
        </mxCell>
        <mxCell id="wZHMpMPSBQjcepl6iZ_0-13" style="edgeStyle=orthogonalEdgeStyle;rounded=0;orthogonalLoop=1;jettySize=auto;html=1;" edge="1" parent="1" source="p2QV3S1VOAh8yZYF3OcT-1" target="6w_mq8DxbaA0OkGnwahE-4">
          <mxGeometry relative="1" as="geometry" />
        </mxCell>
        <mxCell id="p2QV3S1VOAh8yZYF3OcT-1" value="Administrator" style="shape=umlActor;verticalLabelPosition=bottom;verticalAlign=top;html=1;outlineConnect=0;" parent="1" vertex="1">
          <mxGeometry x="30" y="180" width="50" height="110" as="geometry" />
        </mxCell>
        <mxCell id="p2QV3S1VOAh8yZYF3OcT-9" style="edgeStyle=orthogonalEdgeStyle;rounded=0;orthogonalLoop=1;jettySize=auto;html=1;entryX=0;entryY=0.5;entryDx=0;entryDy=0;" parent="1" source="p2QV3S1VOAh8yZYF3OcT-6" target="6w_mq8DxbaA0OkGnwahE-4" edge="1">
          <mxGeometry relative="1" as="geometry" />
        </mxCell>
        <mxCell id="wZHMpMPSBQjcepl6iZ_0-8" style="edgeStyle=orthogonalEdgeStyle;rounded=0;orthogonalLoop=1;jettySize=auto;html=1;entryX=0.5;entryY=1;entryDx=0;entryDy=0;" edge="1" parent="1" source="p2QV3S1VOAh8yZYF3OcT-6" target="wZHMpMPSBQjcepl6iZ_0-3">
          <mxGeometry relative="1" as="geometry" />
        </mxCell>
        <mxCell id="p2QV3S1VOAh8yZYF3OcT-6" value="Authorized" style="shape=umlActor;verticalLabelPosition=bottom;verticalAlign=top;html=1;outlineConnect=0;" parent="1" vertex="1">
          <mxGeometry x="30" y="405" width="50" height="110" as="geometry" />
        </mxCell>
        <mxCell id="wZHMpMPSBQjcepl6iZ_0-6" style="edgeStyle=orthogonalEdgeStyle;rounded=0;orthogonalLoop=1;jettySize=auto;html=1;" edge="1" parent="1" source="p2QV3S1VOAh8yZYF3OcT-7" target="wZHMpMPSBQjcepl6iZ_0-4">
          <mxGeometry relative="1" as="geometry" />
        </mxCell>
        <mxCell id="wZHMpMPSBQjcepl6iZ_0-7" style="edgeStyle=orthogonalEdgeStyle;rounded=0;orthogonalLoop=1;jettySize=auto;html=1;entryX=0.5;entryY=1;entryDx=0;entryDy=0;" edge="1" parent="1" source="p2QV3S1VOAh8yZYF3OcT-7" target="6w_mq8DxbaA0OkGnwahE-7">
          <mxGeometry relative="1" as="geometry" />
        </mxCell>
        <mxCell id="p2QV3S1VOAh8yZYF3OcT-7" value="Non-authorized" style="shape=umlActor;verticalLabelPosition=bottom;verticalAlign=top;html=1;outlineConnect=0;" parent="1" vertex="1">
          <mxGeometry x="30" y="620" width="50" height="110" as="geometry" />
        </mxCell>
        <mxCell id="wZHMpMPSBQjcepl6iZ_0-3" value="Logout" style="ellipse;whiteSpace=wrap;html=1;" vertex="1" parent="1">
          <mxGeometry x="310" y="310" width="140" height="80" as="geometry" />
        </mxCell>
        <mxCell id="wZHMpMPSBQjcepl6iZ_0-4" value="Login/Register" style="ellipse;whiteSpace=wrap;html=1;" vertex="1" parent="1">
          <mxGeometry x="450" y="635" width="140" height="80" as="geometry" />
        </mxCell>
      </root>
    </mxGraphModel>
  </diagram>
</mxfile>
